<svg width="181" height="39" viewBox="0 0 181 39" fill="none" xmlns="http://www.w3.org/2000/svg">
<path d="M7.24091 14.4286C7.24091 10.0103 10.8226 6.42859 15.2409 6.42859H24.2409C28.6592 6.42859 32.2409 10.0103 32.2409 14.4286V23.4286C32.2409 27.8469 28.6592 31.4286 24.2409 31.4286H15.2409C10.8226 31.4286 7.24091 27.8469 7.24091 23.4286V14.4286Z" fill="#1EB86E"/>
<path d="M25.9227 15.1531C25.9227 20.2082 21.6867 24.3061 16.4614 24.3061C11.236 24.3061 7 20.2082 7 15.1531C7 10.098 11.236 6 16.4614 6C21.6867 6 25.9227 10.098 25.9227 15.1531Z" fill="black" fill-opacity="0.02"/>
<g clip-path="url(#clip0)">
<path d="M17.9142 13.2866C16.6865 12.7005 14.9705 12.4134 12.6731 12.4032C12.4565 12.4002 12.2441 12.4634 12.0642 12.5843C11.9166 12.6841 11.7958 12.8186 11.7124 12.976C11.6289 13.1334 11.5855 13.309 11.5858 13.4871V23.2088C11.5858 23.8659 12.0533 24.3617 12.6731 24.3617C15.0881 24.3617 17.5105 24.5873 18.9614 25.9587C18.9813 25.9776 19.0062 25.9902 19.0332 25.995C19.0601 25.9998 19.0879 25.9965 19.113 25.9857C19.1381 25.9748 19.1595 25.9568 19.1745 25.9339C19.1895 25.911 19.1974 25.8842 19.1973 25.8568V14.4019C19.1973 14.3246 19.1808 14.2482 19.1488 14.1778C19.1168 14.1075 19.07 14.0448 19.0117 13.9941C18.6794 13.71 18.3102 13.472 17.9142 13.2866Z" fill="white"/>
<path d="M27.4177 12.5833C27.2377 12.4627 27.0253 12.3999 26.8087 12.4032C24.5114 12.4134 22.7954 12.6992 21.5677 13.2867C21.1717 13.4717 20.8024 13.7092 20.4698 13.9928C20.4116 14.0436 20.365 14.1063 20.3331 14.1766C20.3011 14.2469 20.2846 14.3233 20.2846 14.4005V25.8561C20.2846 25.8824 20.2924 25.9082 20.3069 25.9301C20.3215 25.952 20.3421 25.9691 20.3664 25.9793C20.3906 25.9895 20.4173 25.9923 20.4432 25.9874C20.469 25.9825 20.4928 25.97 20.5116 25.9516C21.3839 25.0851 22.9147 24.3607 26.8101 24.361C27.0985 24.361 27.3751 24.2465 27.579 24.0426C27.7829 23.8386 27.8975 23.5621 27.8975 23.2737V13.4875C27.8979 13.309 27.8543 13.1331 27.7706 12.9754C27.6869 12.8177 27.5657 12.683 27.4177 12.5833Z" fill="white"/>
</g>
<path d="M54.6349 10.2686V27.4286H50.1629V10.2686H54.6349ZM43.6109 10.2686V27.4286H39.1389V10.2686H43.6109ZM52.5549 17.0546V20.5126H41.3229V17.0546H52.5549Z" fill="#1EB86E"/>
<path d="M65.327 19.1866C65.327 18.5799 65.1537 18.1032 64.807 17.7566C64.4777 17.3926 64.027 17.2106 63.455 17.2106C62.883 17.2106 62.389 17.3579 61.973 17.6526C61.5743 17.9299 61.297 18.4326 61.141 19.1606L57.397 18.2766C57.6397 17.0286 58.281 16.0319 59.321 15.2866C60.361 14.5412 61.8257 14.1686 63.715 14.1686C64.9803 14.1686 66.055 14.3592 66.939 14.7406C67.8403 15.1046 68.525 15.6592 68.993 16.4046C69.4783 17.1326 69.721 18.0339 69.721 19.1086V23.8666C69.721 24.5426 70.0243 24.8806 70.631 24.8806C70.943 24.8806 71.1943 24.8459 71.385 24.7766L71.125 27.2986C70.605 27.5412 69.9723 27.6626 69.227 27.6626C68.551 27.6626 67.953 27.5586 67.433 27.3506C66.913 27.1252 66.5057 26.7959 66.211 26.3626C65.9163 25.9119 65.769 25.3486 65.769 24.6726V24.5166L66.263 24.3346C66.263 25.0799 66.0377 25.7039 65.587 26.2066C65.1537 26.7092 64.5817 27.0819 63.871 27.3246C63.1777 27.5672 62.4497 27.6886 61.687 27.6886C60.803 27.6886 60.0317 27.5499 59.373 27.2726C58.7143 26.9952 58.203 26.5966 57.839 26.0766C57.4923 25.5392 57.319 24.8806 57.319 24.1006C57.319 23.1646 57.5963 22.3932 58.151 21.7866C58.723 21.1626 59.6157 20.7292 60.829 20.4866L65.743 19.4726L65.717 21.8126L63.221 22.3326C62.701 22.4366 62.311 22.5926 62.051 22.8006C61.8083 22.9912 61.687 23.2859 61.687 23.6846C61.687 24.0659 61.8257 24.3519 62.103 24.5426C62.3803 24.7332 62.7097 24.8286 63.091 24.8286C63.3857 24.8286 63.663 24.7852 63.923 24.6986C64.2003 24.6119 64.443 24.4819 64.651 24.3086C64.859 24.1179 65.0237 23.8839 65.145 23.6066C65.2663 23.3292 65.327 22.9999 65.327 22.6186V19.1866Z" fill="#1EB86E"/>
<path d="M77.4976 8.91656V23.0086C77.4976 23.5806 77.593 23.9879 77.7836 24.2306C77.9743 24.4732 78.295 24.5946 78.7456 24.5946C79.0056 24.5946 79.2223 24.5772 79.3956 24.5426C79.569 24.5079 79.777 24.4559 80.0196 24.3866L79.7336 27.0386C79.4216 27.2292 79.0143 27.3852 78.5116 27.5066C78.009 27.6279 77.515 27.6886 77.0296 27.6886C75.643 27.6886 74.6376 27.3679 74.0136 26.7266C73.3896 26.0852 73.0776 25.0366 73.0776 23.5806V8.91656H77.4976Z" fill="#1EB86E"/>
<path d="M89.0926 19.1866C89.0926 18.5799 88.9193 18.1032 88.5726 17.7566C88.2433 17.3926 87.7926 17.2106 87.2206 17.2106C86.6486 17.2106 86.1546 17.3579 85.7386 17.6526C85.34 17.9299 85.0626 18.4326 84.9066 19.1606L81.1626 18.2766C81.4053 17.0286 82.0466 16.0319 83.0866 15.2866C84.1266 14.5412 85.5913 14.1686 87.4806 14.1686C88.746 14.1686 89.8206 14.3592 90.7046 14.7406C91.606 15.1046 92.2906 15.6592 92.7586 16.4046C93.244 17.1326 93.4866 18.0339 93.4866 19.1086V23.8666C93.4866 24.5426 93.79 24.8806 94.3966 24.8806C94.7086 24.8806 94.96 24.8459 95.1506 24.7766L94.8906 27.2986C94.3706 27.5412 93.738 27.6626 92.9926 27.6626C92.3166 27.6626 91.7186 27.5586 91.1986 27.3506C90.6786 27.1252 90.2713 26.7959 89.9766 26.3626C89.682 25.9119 89.5346 25.3486 89.5346 24.6726V24.5166L90.0286 24.3346C90.0286 25.0799 89.8033 25.7039 89.3526 26.2066C88.9193 26.7092 88.3473 27.0819 87.6366 27.3246C86.9433 27.5672 86.2153 27.6886 85.4526 27.6886C84.5686 27.6886 83.7973 27.5499 83.1386 27.2726C82.48 26.9952 81.9686 26.5966 81.6046 26.0766C81.258 25.5392 81.0846 24.8806 81.0846 24.1006C81.0846 23.1646 81.362 22.3932 81.9166 21.7866C82.4886 21.1626 83.3813 20.7292 84.5946 20.4866L89.5086 19.4726L89.4826 21.8126L86.9866 22.3326C86.4666 22.4366 86.0766 22.5926 85.8166 22.8006C85.574 22.9912 85.4526 23.2859 85.4526 23.6846C85.4526 24.0659 85.5913 24.3519 85.8686 24.5426C86.146 24.7332 86.4753 24.8286 86.8566 24.8286C87.1513 24.8286 87.4286 24.7852 87.6886 24.6986C87.966 24.6119 88.2086 24.4819 88.4166 24.3086C88.6246 24.1179 88.7893 23.8839 88.9106 23.6066C89.032 23.3292 89.0926 22.9999 89.0926 22.6186V19.1866Z" fill="#1EB86E"/>
<path d="M105.504 32.8886V23.0866L105.972 23.6586C105.868 24.4559 105.616 25.1579 105.218 25.7646C104.819 26.3712 104.316 26.8479 103.71 27.1946C103.103 27.5239 102.392 27.6886 101.578 27.6886C100.52 27.6886 99.5844 27.4199 98.7697 26.8826C97.9724 26.3452 97.3484 25.5652 96.8977 24.5426C96.447 23.5199 96.2217 22.2979 96.2217 20.8766C96.2217 19.4552 96.447 18.2506 96.8977 17.2626C97.3657 16.2572 98.007 15.4946 98.8217 14.9746C99.6537 14.4372 100.598 14.1686 101.656 14.1686C102.505 14.1686 103.25 14.3592 103.892 14.7406C104.55 15.1219 105.079 15.6506 105.478 16.3266C105.894 17.0026 106.145 17.7826 106.232 18.6666L105.712 19.0826L105.946 14.4286H109.924V32.8886H105.504ZM103.112 24.4386C103.614 24.4386 104.039 24.2999 104.386 24.0226C104.75 23.7452 105.027 23.3466 105.218 22.8266C105.408 22.2892 105.504 21.6479 105.504 20.9026C105.504 20.1226 105.408 19.4812 105.218 18.9786C105.027 18.4586 104.75 18.0686 104.386 17.8086C104.039 17.5486 103.623 17.4186 103.138 17.4186C102.375 17.4186 101.768 17.7046 101.318 18.2766C100.884 18.8312 100.668 19.7152 100.668 20.9286C100.668 22.1419 100.884 23.0346 101.318 23.6066C101.751 24.1612 102.349 24.4386 103.112 24.4386Z" fill="#1EB86E"/>
<path d="M120.348 19.1866C120.348 18.5799 120.175 18.1032 119.828 17.7566C119.499 17.3926 119.048 17.2106 118.476 17.2106C117.904 17.2106 117.41 17.3579 116.994 17.6526C116.596 17.9299 116.318 18.4326 116.162 19.1606L112.418 18.2766C112.661 17.0286 113.302 16.0319 114.342 15.2866C115.382 14.5412 116.847 14.1686 118.736 14.1686C120.002 14.1686 121.076 14.3592 121.96 14.7406C122.862 15.1046 123.546 15.6592 124.014 16.4046C124.5 17.1326 124.742 18.0339 124.742 19.1086V23.8666C124.742 24.5426 125.046 24.8806 125.652 24.8806C125.964 24.8806 126.216 24.8459 126.406 24.7766L126.146 27.2986C125.626 27.5412 124.994 27.6626 124.248 27.6626C123.572 27.6626 122.974 27.5586 122.454 27.3506C121.934 27.1252 121.527 26.7959 121.232 26.3626C120.938 25.9119 120.79 25.3486 120.79 24.6726V24.5166L121.284 24.3346C121.284 25.0799 121.059 25.7039 120.608 26.2066C120.175 26.7092 119.603 27.0819 118.892 27.3246C118.199 27.5672 117.471 27.6886 116.708 27.6886C115.824 27.6886 115.053 27.5499 114.394 27.2726C113.736 26.9952 113.224 26.5966 112.86 26.0766C112.514 25.5392 112.34 24.8806 112.34 24.1006C112.34 23.1646 112.618 22.3932 113.172 21.7866C113.744 21.1626 114.637 20.7292 115.85 20.4866L120.764 19.4726L120.738 21.8126L118.242 22.3326C117.722 22.4366 117.332 22.5926 117.072 22.8006C116.83 22.9912 116.708 23.2859 116.708 23.6846C116.708 24.0659 116.847 24.3519 117.124 24.5426C117.402 24.7332 117.731 24.8286 118.112 24.8286C118.407 24.8286 118.684 24.7852 118.944 24.6986C119.222 24.6119 119.464 24.4819 119.672 24.3086C119.88 24.1179 120.045 23.8839 120.166 23.6066C120.288 23.3292 120.348 22.9999 120.348 22.6186V19.1866Z" fill="#1EB86E"/>
<path d="M128.151 27.4286V8.91656H132.571V16.7946C132.952 15.9279 133.498 15.2779 134.209 14.8446C134.92 14.3939 135.743 14.1686 136.679 14.1686C137.58 14.1686 138.36 14.3419 139.019 14.6886C139.695 15.0352 140.224 15.5466 140.605 16.2226C140.986 16.8986 141.177 17.7479 141.177 18.7706V27.4286H136.757V19.9926C136.757 19.0566 136.584 18.4152 136.237 18.0686C135.908 17.7046 135.466 17.5226 134.911 17.5226C134.495 17.5226 134.105 17.6266 133.741 17.8346C133.377 18.0426 133.091 18.3719 132.883 18.8226C132.675 19.2732 132.571 19.8626 132.571 20.5906V27.4286H128.151Z" fill="#1EB86E"/>
<path d="M160.109 10.2686L152.049 19.9146L151.763 19.2386L147.681 24.2046L146.823 20.5906L155.143 10.2686H160.109ZM149.007 10.2686V27.4286H144.535V10.2686H149.007ZM153.505 15.9366L160.421 27.4286H155.351L150.151 18.4326L153.505 15.9366Z" fill="#1EB86E"/>
<path d="M166.391 27.6886C165.507 27.6886 164.727 27.5412 164.051 27.2466C163.392 26.9346 162.872 26.4406 162.491 25.7646C162.109 25.0886 161.919 24.2046 161.919 23.1126V14.4286H166.339V22.0726C166.339 22.9046 166.503 23.4852 166.833 23.8146C167.162 24.1439 167.63 24.3086 168.237 24.3086C168.549 24.3086 168.844 24.2566 169.121 24.1526C169.398 24.0312 169.641 23.8579 169.849 23.6326C170.057 23.3899 170.213 23.0866 170.317 22.7226C170.438 22.3412 170.499 21.8992 170.499 21.3966V14.4286H174.919V27.4286H170.967L170.837 24.9846C170.421 25.9032 169.84 26.5879 169.095 27.0386C168.35 27.4719 167.448 27.6886 166.391 27.6886Z" fill="#1EB86E"/>
<defs>
<clipPath id="clip0">
<rect width="17.3977" height="17.3977" fill="white" transform="translate(11.0421 10.7722)"/>
</clipPath>
</defs>
</svg>
